<svg width="25" height="25" viewBox="0 0 25 25" fill="none" xmlns="http://www.w3.org/2000/svg">
<path fill-rule="evenodd" clip-rule="evenodd" d="M9.5625 2.5C8.45793 2.5 7.5625 3.39543 7.5625 4.5V5.5H6.5625H4.5625C4.01022 5.5 3.5625 5.94772 3.5625 6.5C3.5625 7.05228 4.01022 7.5 4.5625 7.5H5.5625V20.5C5.5625 21.6046 6.45793 22.5 7.5625 22.5H17.5625C18.6671 22.5 19.5625 21.6046 19.5625 20.5V7.5H20.5625C21.1148 7.5 21.5625 7.05228 21.5625 6.5C21.5625 5.94772 21.1148 5.5 20.5625 5.5H18.5625H17.5625V4.5C17.5625 3.39543 16.6671 2.5 15.5625 2.5H9.5625ZM15.5625 5.5V4.5H9.5625V5.5H15.5625ZM8.5625 7.5H7.5625V20.5H17.5625V7.5H16.5625H8.5625Z" fill="#74899C"/>
</svg>
